<?xml version="1.0" encoding="UTF-8"?>
<!DOCTYPE svg PUBLIC "-//W3C//DTD SVG 1.1//EN" "http://www.w3.org/Graphics/SVG/1.1/DTD/svg11.dtd">
<!-- Creator: CorelDRAW -->
<svg xmlns="http://www.w3.org/2000/svg" xml:space="preserve" width="1.70666in" height="1.70666in" version="1.1" style="shape-rendering:geometricPrecision; text-rendering:geometricPrecision; image-rendering:optimizeQuality; fill-rule:evenodd; clip-rule:evenodd"
viewBox="0 0 1706.66 1706.66"
 xmlns:xlink="http://www.w3.org/1999/xlink"
 xmlns:xodm="http://www.corel.com/coreldraw/odm/2003">
 <defs>
  <style type="text/css">
   <![CDATA[
    .fil0 {fill:#515151}
    .fil2 {fill:#515151}
    .fil1 {fill:#6F6F6F}
    .fil3 {fill:#D63447}
   ]]>
  </style>
 </defs>
 <g id="Layer_x0020_1">
  <metadata id="CorelCorpID_0Corel-Layer"/>
  <g id="_1949941689392">
   <rect class="fil0" x="469.99" y="1536.67" width="776.67" height="130" rx="102.33" ry="65"/>
   <path class="fil1" d="M335.07 196.67l60.46 0c-60.32,50.24 -98.88,125.83 -98.88,210l0 646.68c0,87.98 42.14,166.58 107.22,216.66l-68.8 0c-167.8,0 -305.09,-137.29 -305.09,-305.09l0 -463.16c0,-167.8 137.29,-305.09 305.09,-305.09z"/>
   <path class="fil2" d="M387.55 56.67l944.89 0c209.49,0 380.89,171.4 380.89,380.89l0 578.23c0,209.49 -171.39,380.89 -380.89,380.89l-944.89 0c-209.49,0 -380.89,-171.4 -380.89,-380.89l0 -578.23c0,-209.49 171.39,-380.89 380.89,-380.89zm47.53 140l849.83 0c167.8,0 305.09,137.29 305.09,305.09l0 463.16c0,167.8 -137.29,305.09 -305.09,305.09l-849.83 0c-167.8,0 -305.09,-137.29 -305.09,-305.09l0 -463.16c0,-167.8 137.29,-305.09 305.09,-305.09z"/>
  </g>
  <path class="fil3" d="M799.19 295.51l442.04 0 0 891.1 -666.58 0 0 -652.21 224.54 0 0 -238.89zm230.58 165.34c77.38,0 140.1,63.12 140.1,140.98 0,69.19 -49.54,126.73 -114.87,138.69l0 162.41 -37.9 0 48.92 84.99c34.23,59.47 34.23,59.47 34.23,59.47 0,0 0,0 0,0 0,0 0,0 0,0 0,0 0,0 0,0 0,0 0,0 -68.46,-0.29 -68.46,-0.29 -205.37,-0.87 -273.83,-1.16 -68.46,-0.29 -68.46,-0.29 -68.46,-0.29 0,0 0,0 0,0 0,0 0,0 34.23,-59.18l48.33 -83.54 -40.78 0 0 -320.24 159.67 0c9.29,-68.8 67.89,-121.83 138.81,-121.83zm-27.54 279.22c-53.5,-10.73 -96,-52.11 -108.68,-105.18l-109.48 0 0 215.81 18.2 0 58.39 -100.94c34.23,-59.17 34.23,-59.17 34.23,-59.17 0,0 0,0 34.23,59.46l57.94 100.66 15.17 0 0 -110.64zm-58.28 -157.39l111.06 0 0 103.88c36.24,-10.91 62.66,-44.71 62.66,-84.73 0,-48.85 -39.35,-88.44 -87.89,-88.44 -42.01,0 -77.13,29.66 -85.82,69.3zm14.16 320.24l-128.43 0 -33.99 58.23c-19.67,33.7 -19.67,33.7 -19.67,33.7 0,0 0,0 0,0 0,0 0,0 39.35,0.17 39.35,0.16 118.04,0.49 157.39,0.66 39.35,0.17 39.35,0.17 39.35,0.17 0,0 0,0 0,0 0,0 0,0 0,0 0,0 0,0 0,0 0,0 0,0 -19.67,-33.87l-34.31 -59.06zm-9.87 -268.03l53.99 0 0 50.94c-24.58,-8.16 -44.37,-26.93 -53.99,-50.94zm-20.46 215.81l-67.63 0 14.22 -24.37c19.67,-33.7 19.67,-33.7 19.67,-33.7 0,0 0,0 19.67,33.87l14.06 24.2zm-353.13 -367.23l0 -4.94 169.92 -170.85 0.64 0 0 175.79 -170.56 0z"/>
 </g>
</svg>
