<?xml version="1.0" encoding="UTF-8"?>
<!DOCTYPE svg PUBLIC "-//W3C//DTD SVG 1.1//EN" "http://www.w3.org/Graphics/SVG/1.1/DTD/svg11.dtd">
<!-- Creator: CorelDRAW -->
<svg xmlns="http://www.w3.org/2000/svg" xml:space="preserve" width="1.70666in" height="1.70666in" version="1.1" style="shape-rendering:geometricPrecision; text-rendering:geometricPrecision; image-rendering:optimizeQuality; fill-rule:evenodd; clip-rule:evenodd"
viewBox="0 0 1706.66 1706.66"
 xmlns:xlink="http://www.w3.org/1999/xlink"
 xmlns:xodm="http://www.corel.com/coreldraw/odm/2003">
 <defs>
  <style type="text/css">
   <![CDATA[
    .fil0 {fill:#515151}
    .fil2 {fill:#515151}
    .fil1 {fill:#6F6F6F}
    .fil3 {fill:#D63447}
   ]]>
  </style>
 </defs>
 <g id="Layer_x0020_1">
  <metadata id="CorelCorpID_0Corel-Layer"/>
  <g id="_1949941666304">
   <rect class="fil0" x="469.99" y="1536.67" width="776.67" height="130" rx="102.33" ry="65"/>
   <path class="fil1" d="M335.07 196.67l60.46 0c-60.32,50.24 -98.88,125.83 -98.88,210l0 646.68c0,87.98 42.14,166.58 107.22,216.66l-68.8 0c-167.8,0 -305.09,-137.29 -305.09,-305.09l0 -463.16c0,-167.8 137.29,-305.09 305.09,-305.09z"/>
   <path class="fil2" d="M387.55 56.67l944.89 0c209.49,0 380.89,171.4 380.89,380.89l0 578.23c0,209.49 -171.39,380.89 -380.89,380.89l-944.89 0c-209.49,0 -380.89,-171.4 -380.89,-380.89l0 -578.23c0,-209.49 171.39,-380.89 380.89,-380.89zm47.53 140l849.83 0c167.8,0 305.09,137.29 305.09,305.09l0 463.16c0,167.8 -137.29,305.09 -305.09,305.09l-849.83 0c-167.8,0 -305.09,-137.29 -305.09,-305.09l0 -463.16c0,-167.8 137.29,-305.09 305.09,-305.09z"/>
  </g>
  <path class="fil3" d="M459.37 342.55l137.13 0 0 63.61 -67.65 0 0 76.79 -69.48 0 0 -140.4zm427.85 677.96l0 0c14.08,0 25.6,11.52 25.6,25.6l0 111.54c0,14.08 -11.52,25.6 -25.6,25.6l-0 0c-14.08,0 -25.59,-11.52 -25.59,-25.6l0 -111.54c0,-14.08 11.52,-25.6 25.59,-25.6zm-427.85 53.93l371.18 0 0 59.44 -371.18 0 0 -59.44zm486.37 0l363.86 0 0 59.44 -363.86 0 0 -59.44zm-60.34 -617.08c101.99,0 184.67,81.87 184.67,182.84 0,100.97 -82.68,182.84 -184.67,182.84 -101.99,0 -184.67,-81.87 -184.67,-182.84 0,-100.97 82.68,-182.84 184.67,-182.84zm-28.95 113.06c-24.07,-14.32 -24.07,-14.32 -24.38,15.54 -0.3,29.87 -0.91,89.59 -1.22,119.46 -0.3,29.87 -0.3,29.87 -0.3,29.87 0,0 0,0 24.38,-15.54 24.38,-15.54 73.14,-46.63 97.52,-62.17 24.38,-15.54 24.38,-15.54 24.38,-15.54 0,0 0,0 0,0 0,0 0,0 0,0 0,0 0,0 -24.07,-14.32 -24.07,-14.32 -72.22,-42.97 -96.3,-57.3zm533.6 -162.43l0 -69.48 -74.96 0 0 -74.97 -69.48 0 0 74.97 -74.97 0 0 69.48 74.97 0 0 74.96 69.48 0 0 -74.96 74.96 0zm-716.75 -65.44l175.53 0 0 63.61 -175.53 0 0 -63.61zm252.32 0l175.54 0 0 63.61 -175.54 0 0 -63.61zm389.46 217.2l0 155.42 -69.48 0 0 -155.42 69.48 0zm0 232.21l0 148.11 -137.13 0 0 -60.34 67.65 0 0 -87.77 69.48 0zm-213.93 148.11l-175.54 0 0 -60.34 175.54 0 0 60.34zm-252.33 0l-175.53 0 0 -60.34 175.53 0 0 60.34zm-252.33 0l-137.13 0 0 -148.11 69.48 0 0 87.77 67.65 0 0 60.34zm-137.13 -224.9l0 -155.42 69.48 0 0 155.42 -69.48 0z"/>
 </g>
</svg>
