<?xml version="1.0" encoding="UTF-8"?>
<!DOCTYPE svg PUBLIC "-//W3C//DTD SVG 1.1//EN" "http://www.w3.org/Graphics/SVG/1.1/DTD/svg11.dtd">
<!-- Creator: CorelDRAW -->
<svg xmlns="http://www.w3.org/2000/svg" xml:space="preserve" width="1.70666in" height="1.70666in" version="1.1" style="shape-rendering:geometricPrecision; text-rendering:geometricPrecision; image-rendering:optimizeQuality; fill-rule:evenodd; clip-rule:evenodd"
viewBox="0 0 1706.66 1706.66"
 xmlns:xlink="http://www.w3.org/1999/xlink"
 xmlns:xodm="http://www.corel.com/coreldraw/odm/2003">
 <defs>
  <style type="text/css">
   <![CDATA[
    .str0 {stroke:#D63447;stroke-width:33.33;stroke-miterlimit:2.61313}
    .fil3 {fill:none}
    .fil0 {fill:#515151}
    .fil2 {fill:#515151}
    .fil1 {fill:#6F6F6F}
    .fil4 {fill:#D63447}
   ]]>
  </style>
 </defs>
 <g id="Layer_x0020_1">
  <metadata id="CorelCorpID_0Corel-Layer"/>
  <g id="_1949938906400">
   <rect class="fil0" x="469.99" y="1536.67" width="776.67" height="130" rx="102.33" ry="65"/>
   <path class="fil1" d="M335.07 196.67l60.46 0c-60.32,50.24 -98.88,125.83 -98.88,210l0 646.68c0,87.98 42.14,166.58 107.22,216.66l-68.8 0c-167.8,0 -305.09,-137.29 -305.09,-305.09l0 -463.16c0,-167.8 137.29,-305.09 305.09,-305.09z"/>
   <path class="fil2" d="M387.55 56.67l944.89 0c209.49,0 380.89,171.4 380.89,380.89l0 578.23c0,209.49 -171.39,380.89 -380.89,380.89l-944.89 0c-209.49,0 -380.89,-171.4 -380.89,-380.89l0 -578.23c0,-209.49 171.39,-380.89 380.89,-380.89zm47.53 140l849.83 0c167.8,0 305.09,137.29 305.09,305.09l0 463.16c0,167.8 -137.29,305.09 -305.09,305.09l-849.83 0c-167.8,0 -305.09,-137.29 -305.09,-305.09l0 -463.16c0,-167.8 137.29,-305.09 305.09,-305.09z"/>
  </g>
  <g id="_1949938905968">
   <path class="fil3 str0" d="M551.97 348.07c34.8,-11.29 69.6,-22.57 102.52,-25.87 32.92,-3.3 63.96,1.41 93.59,13.17 29.63,11.76 57.84,30.57 73.36,40.44 15.52,9.87 18.34,10.82 21.17,11.76"/>
   <path class="fil3 str0" d="M1000.62 398.85c0,4.7 0,9.41 0,11.76 0,2.35 0,2.35 17.4,13.17 17.4,10.81 52.2,32.45 87.47,42.32 35.28,9.88 71.02,8 98.76,4.7 27.75,-3.29 47.5,-7.99 62.13,-12.89 14.63,-4.9 24.15,-10 33.67,-15.1"/>
   <ellipse class="fil3 str0" cx="543.5" cy="410.14" rx="59.26" ry="62.08"/>
   <ellipse class="fil3 str0" cx="1294.07" cy="384.75" rx="59.26" ry="62.08"/>
   <path class="fil4" d="M962.51 457.91c-6.96,3.09 -17.14,10.31 -26.8,15.54l0 15.69c17.42,-3.25 33.28,-10.72 46.36,-21.26l-4.04 -9.77c0,0 0,0 0,0 0,0 0,0 -1.88,-0.94 -1.88,-0.94 -5.64,-2.82 -13.65,0.74zm-26.8 58.74l0 202.24c31.71,8.5 55.02,36.96 55.02,70.77 0,40.52 -33.48,73.36 -74.77,73.36 -41.3,0 -74.78,-32.84 -74.78,-73.36 0,-34.81 24.7,-63.95 57.85,-71.47l0 -201.16c-22.99,-2.85 -44.11,-11.41 -61.78,-24.15l-12.58 30.87c-29.15,71.52 -87.44,214.57 -116.59,286.09 -29.15,71.52 -29.15,71.52 -29.15,71.52 0,0 0,0 0,0 0,0 0,0 0,0 0,0 0,0 0,0 0,0 0,0 13.17,29.63 13.17,29.63 39.5,88.88 52.67,118.51l9.41 21.16 320.87 0 9.74 -21.16c13.64,-29.63 40.92,-88.89 54.56,-118.51 13.64,-29.63 13.64,-29.63 13.64,-29.63 0,0 0,0 0,0 0,0 0,0 -29.16,-70.54 -29.16,-70.54 -87.48,-211.63 -116.63,-282.17l-14.28 -34.54c-16.57,11.55 -36.06,19.47 -57.21,22.54zm-183.12 562.24l-0.76 2.82c-6.11,22.57 -18.33,67.72 -24.45,90.29 -6.11,22.57 -6.11,22.57 -6.11,22.57 0,0 0,0 0,0 0,0 0,0 65.37,0 65.37,0 196.11,0 261.48,0 65.37,0 65.37,0 65.37,0 0,0 0,0 0,0 0,0 0,0 -7.06,-22.57 -7.05,-22.57 -21.16,-67.72 -28.22,-90.29l-0.89 -2.82 -324.73 0zm146.44 -589.27l0 -8.56c-7.73,-1.1 -15.1,-3.83 -22.12,-8.41 -8,-5.21 -15.55,-12.82 -19.32,-16.62 -3.77,-3.8 -3.77,-3.8 -3.77,-3.8l-5.77 14.17c14.11,11.9 31.63,20.15 50.98,23.23zm16.93 258.76c23.24,0 42.07,18.48 42.07,41.28 0,22.8 -18.84,41.28 -42.07,41.28 -23.24,0 -42.08,-18.48 -42.08,-41.28 0,-22.8 18.83,-41.28 42.08,-41.28z"/>
   <ellipse class="fil3 str0" cx="915.97" cy="392" rx="84.65" ry="88.68"/>
  </g>
 </g>
</svg>
