<?xml version="1.0" encoding="UTF-8"?>
<!DOCTYPE svg PUBLIC "-//W3C//DTD SVG 1.1//EN" "http://www.w3.org/Graphics/SVG/1.1/DTD/svg11.dtd">
<!-- Creator: CorelDRAW -->
<svg xmlns="http://www.w3.org/2000/svg" xml:space="preserve" width="1.70666in" height="1.70666in" version="1.1" style="shape-rendering:geometricPrecision; text-rendering:geometricPrecision; image-rendering:optimizeQuality; fill-rule:evenodd; clip-rule:evenodd"
viewBox="0 0 1706.66 1706.66"
 xmlns:xlink="http://www.w3.org/1999/xlink"
 xmlns:xodm="http://www.corel.com/coreldraw/odm/2003">
 <defs>
  <style type="text/css">
   <![CDATA[
    .fil0 {fill:#515151}
    .fil2 {fill:#515151}
    .fil1 {fill:#6F6F6F}
    .fil3 {fill:#D63447}
   ]]>
  </style>
 </defs>
 <g id="Layer_x0020_1">
  <metadata id="CorelCorpID_0Corel-Layer"/>
  <g id="_1949953771904">
   <rect class="fil0" x="469.99" y="1536.67" width="776.67" height="130" rx="102.33" ry="65"/>
   <path class="fil1" d="M335.07 196.67l60.46 0c-60.32,50.24 -98.88,125.83 -98.88,210l0 646.68c0,87.98 42.14,166.58 107.22,216.66l-68.8 0c-167.8,0 -305.09,-137.29 -305.09,-305.09l0 -463.16c0,-167.8 137.29,-305.09 305.09,-305.09z"/>
   <path class="fil2" d="M387.55 56.67l944.89 0c209.49,0 380.89,171.4 380.89,380.89l0 578.23c0,209.49 -171.39,380.89 -380.89,380.89l-944.89 0c-209.49,0 -380.89,-171.4 -380.89,-380.89l0 -578.23c0,-209.49 171.39,-380.89 380.89,-380.89zm47.53 140l849.83 0c167.8,0 305.09,137.29 305.09,305.09l0 463.16c0,167.8 -137.29,305.09 -305.09,305.09l-849.83 0c-167.8,0 -305.09,-137.29 -305.09,-305.09l0 -463.16c0,-167.8 137.29,-305.09 305.09,-305.09z"/>
  </g>
  <path class="fil3" d="M787.09 636.06c-6.29,7.63 -13.69,17.72 -16.57,23.48 -2.88,5.76 -1.25,7.2 -0.43,7.93 0.82,0.72 0.82,0.72 0.82,0.72 0,0 0,0 -9.8,-8.64 -9.8,-8.65 -29.39,-25.93 -50.42,-36.88 -21.03,-10.95 -43.5,-15.56 -60.79,-16.71 -17.29,-1.15 -29.39,1.15 -37.16,8.35 -7.78,7.2 -11.24,19.3 -11.24,29.39 0,10.08 3.46,18.15 8.93,23.91 5.47,5.76 12.96,9.22 22.18,10.95 9.22,1.73 20.17,1.73 33.13,5.76 12.96,4.03 27.94,12.1 39.18,21.9 11.24,9.79 18.73,21.32 24.49,36.01 5.76,14.69 9.8,32.56 12.96,44.66 3.17,12.1 5.48,18.44 10.95,22.47 5.47,4.03 14.12,5.76 23.05,5.18 8.93,-0.57 18.15,-3.46 24.78,-8.35 6.63,-4.9 10.66,-11.81 11.81,-24.78 1.15,-12.96 -0.57,-31.98 7.49,-55.6 8.07,-23.63 25.93,-51.86 47.25,-71.45 21.32,-19.59 46.09,-30.54 65.98,-36.88 19.88,-6.34 34.86,-8.06 51.28,-8.93 7.85,-0.41 16.03,-0.63 23.44,-0.87 14.12,40.28 52.21,69.15 96.99,69.15 56.8,0 102.85,-46.43 102.85,-103.72 0,-57.28 -46.05,-103.72 -102.85,-103.72 -45.09,0 -83.41,29.26 -97.29,69.99 -7.46,-0.4 -16.24,-0.69 -26.02,-0.56 -21.61,0.29 -48.11,2.59 -74.62,11.52 -26.5,8.93 -53.01,24.49 -70.3,36.88 -17.29,12.39 -25.35,21.61 -31.98,28.81 -6.63,7.2 -11.81,12.39 -18.1,20.02zm-151.02 -304.96l539.33 0c95.07,0 172.86,77.8 172.86,172.86l0 271.4c0,95.06 -77.79,172.86 -172.86,172.86l-539.33 0c-95.07,0 -172.86,-77.8 -172.86,-172.86l0 -271.4c0,-95.06 77.78,-172.86 172.86,-172.86zm-11.41 65.69l562.16 0c53.04,0 96.43,43.38 96.43,96.43l0 292.89c0,53.04 -43.39,96.42 -96.43,96.42l-562.16 0c-53.04,0 -96.43,-43.38 -96.43,-96.42l0 -292.89c0,-53.04 43.39,-96.43 96.43,-96.43zm546.42 681.07l145.2 0c18.54,0 33.71,15.17 33.71,33.71 0,18.54 -15.17,33.71 -33.71,33.71l-145.2 0c-18.54,0 -33.71,-15.17 -33.71,-33.71 0,-18.54 15.17,-33.71 33.71,-33.71zm-674.16 0l366.46 0c3.35,0 6.59,0.5 9.65,1.42 13.6,-41.02 51.74,-70.56 96.66,-70.56 56.33,0 101.99,46.44 101.99,103.72 0,57.28 -45.66,103.72 -101.99,103.72 -45.5,0 -84.03,-30.3 -97.17,-72.14 -2.91,0.83 -5.98,1.27 -9.14,1.27l-366.46 0c-18.54,0 -33.71,-15.17 -33.71,-33.71 0,-18.54 15.17,-33.71 33.71,-33.71zm472.78 -2.34c20.05,0 36.3,16.53 36.3,36.92 0,20.39 -16.25,36.91 -36.3,36.91 -20.05,0 -36.3,-16.53 -36.3,-36.91 0,-20.39 16.25,-36.92 36.3,-36.92zm135.7 -541.63c21.48,0 38.89,17.56 38.89,39.22 0,21.66 -17.41,39.22 -38.89,39.22 -21.48,0 -38.89,-17.56 -38.89,-39.22 0,-21.66 17.41,-39.22 38.89,-39.22z"/>
 </g>
</svg>
