<?xml version="1.0" encoding="UTF-8"?>
<!DOCTYPE svg PUBLIC "-//W3C//DTD SVG 1.1//EN" "http://www.w3.org/Graphics/SVG/1.1/DTD/svg11.dtd">
<!-- Creator: CorelDRAW -->
<svg xmlns="http://www.w3.org/2000/svg" xml:space="preserve" width="1.70666in" height="1.70666in" version="1.1" style="shape-rendering:geometricPrecision; text-rendering:geometricPrecision; image-rendering:optimizeQuality; fill-rule:evenodd; clip-rule:evenodd"
viewBox="0 0 1706.66 1706.66"
 xmlns:xlink="http://www.w3.org/1999/xlink"
 xmlns:xodm="http://www.corel.com/coreldraw/odm/2003">
 <defs>
  <style type="text/css">
   <![CDATA[
    .fil1 {fill:#515151}
    .fil3 {fill:#515151}
    .fil2 {fill:#6F6F6F}
    .fil0 {fill:#D63447}
   ]]>
  </style>
 </defs>
 <g id="Layer_x0020_1">
  <metadata id="CorelCorpID_0Corel-Layer"/>
  <path class="fil0" d="M1056.59 270c-6.15,-6.15 -6.15,-6.15 -6.15,-6.15 0,0 0,0 0,0 0,0 0,0 -15.26,14.56l-58.56 55.8 322.39 325.25 56.64 -60.69c14.34,-15.37 14.34,-15.37 14.34,-15.37 0,0 0,0 0,0 0,0 0,0 -47.11,-47.11 -47.11,-47.11 -141.34,-141.34 -194.6,-194.6 -53.26,-53.26 -65.55,-65.55 -71.69,-71.69zm-97.77 81.16l-44.13 7.98c-44.14,7.98 -132.4,23.94 -176.54,31.93 -44.14,7.98 -44.14,7.98 -44.14,7.98 0,0 0,0 0,0 0,0 0,0 -38.41,124.95 -38.41,124.95 -115.22,374.86 -153.63,499.81 -38.41,124.95 -38.41,124.95 -38.41,124.95 0,0 0,0 0,0l2.66 2.87 295.04 -294.32c-20.83,-23.51 -33.46,-54.31 -33.46,-88.02 0,-73.82 60.53,-133.66 135.19,-133.66 74.67,0 135.2,59.84 135.2,133.66 0,73.82 -60.53,133.66 -135.2,133.66 -31.66,0 -60.78,-10.76 -83.82,-28.79l-296.25 295.53 124.8 -37.8c124.8,-37.8 374.4,-113.4 499.2,-151.2 124.8,-37.8 124.8,-37.8 124.8,-37.8 0,0 0,0 0,0 0,0 0,0 8.71,-44.56 8.7,-44.55 26.12,-133.66 34.82,-178.21l8.12 -41.54 -324.55 -327.43zm-95.81 312.13c59.22,0 107.22,47.46 107.22,106.01 0,58.55 -48,106 -107.22,106 -59.22,0 -107.22,-47.46 -107.22,-106 0,-58.55 48,-106.01 107.22,-106.01z"/>
  <g id="_1949940510032">
   <rect class="fil1" x="469.99" y="1536.67" width="776.67" height="130" rx="102.33" ry="65"/>
   <path class="fil2" d="M335.07 196.67l60.46 0c-60.32,50.24 -98.88,125.83 -98.88,210l0 646.68c0,87.98 42.14,166.58 107.22,216.66l-68.8 0c-167.8,0 -305.09,-137.29 -305.09,-305.09l0 -463.16c0,-167.8 137.29,-305.09 305.09,-305.09z"/>
   <path class="fil3" d="M387.55 56.67l944.89 0c209.49,0 380.89,171.4 380.89,380.89l0 578.23c0,209.49 -171.39,380.89 -380.89,380.89l-944.89 0c-209.49,0 -380.89,-171.4 -380.89,-380.89l0 -578.23c0,-209.49 171.39,-380.89 380.89,-380.89zm47.53 140l849.83 0c167.8,0 305.09,137.29 305.09,305.09l0 463.16c0,167.8 -137.29,305.09 -305.09,305.09l-849.83 0c-167.8,0 -305.09,-137.29 -305.09,-305.09l0 -463.16c0,-167.8 137.29,-305.09 305.09,-305.09z"/>
  </g>
 </g>
</svg>
