<?xml version="1.0" encoding="UTF-8"?>
<!DOCTYPE svg PUBLIC "-//W3C//DTD SVG 1.1//EN" "http://www.w3.org/Graphics/SVG/1.1/DTD/svg11.dtd">
<!-- Creator: CorelDRAW -->
<svg xmlns="http://www.w3.org/2000/svg" xml:space="preserve" width="1.70666in" height="1.70666in" version="1.1" style="shape-rendering:geometricPrecision; text-rendering:geometricPrecision; image-rendering:optimizeQuality; fill-rule:evenodd; clip-rule:evenodd"
viewBox="0 0 1706.66 1706.66"
 xmlns:xlink="http://www.w3.org/1999/xlink"
 xmlns:xodm="http://www.corel.com/coreldraw/odm/2003">
 <defs>
  <style type="text/css">
   <![CDATA[
    .fil0 {fill:#515151}
    .fil2 {fill:#515151}
    .fil1 {fill:#6F6F6F}
    .fil3 {fill:#D63447}
   ]]>
  </style>
 </defs>
 <g id="Layer_x0020_1">
  <metadata id="CorelCorpID_0Corel-Layer"/>
  <g id="_1949938913264">
   <rect class="fil0" x="469.99" y="1536.67" width="776.67" height="130" rx="102.33" ry="65"/>
   <path class="fil1" d="M335.07 196.67l60.46 0c-60.32,50.24 -98.88,125.83 -98.88,210l0 646.68c0,87.98 42.14,166.58 107.22,216.66l-68.8 0c-167.8,0 -305.09,-137.29 -305.09,-305.09l0 -463.16c0,-167.8 137.29,-305.09 305.09,-305.09z"/>
   <path class="fil2" d="M387.55 56.67l944.89 0c209.49,0 380.89,171.4 380.89,380.89l0 578.23c0,209.49 -171.39,380.89 -380.89,380.89l-944.89 0c-209.49,0 -380.89,-171.4 -380.89,-380.89l0 -578.23c0,-209.49 171.39,-380.89 380.89,-380.89zm47.53 140l849.83 0c167.8,0 305.09,137.29 305.09,305.09l0 463.16c0,167.8 -137.29,305.09 -305.09,305.09l-849.83 0c-167.8,0 -305.09,-137.29 -305.09,-305.09l0 -463.16c0,-167.8 137.29,-305.09 305.09,-305.09z"/>
  </g>
  <path class="fil3" d="M661.97 274.06c118.64,0 214.82,95.72 214.82,213.79 0,118.07 -96.18,213.79 -214.82,213.79 -118.64,0 -214.82,-95.72 -214.82,-213.79 0,-118.07 96.18,-213.79 214.82,-213.79zm499.88 493.68c118.64,0 214.82,95.72 214.82,213.79 0,118.07 -96.18,213.79 -214.82,213.79 -118.64,0 -214.82,-95.72 -214.82,-213.79 0,-118.07 96.18,-213.79 214.82,-213.79zm-29.61 151.82c-22.03,-13.43 -22.03,-13.43 -22.03,-13.43 0,0 0,0 0,24.28 0,24.28 0,72.85 0,97.24 0,24.38 0,24.58 0,25.09 0,0.5 0,1.31 0,1.71 0,0.4 0,0.4 22.03,-10.96 22.04,-11.36 66.1,-34.08 88.13,-45.44 22.04,-11.36 22.04,-11.36 22.04,-11.36 0,0 0,0 -22.04,-13.43 -22.03,-13.43 -66.1,-40.28 -88.13,-53.7zm-468.2 -151.82c118.64,0 214.82,95.72 214.82,213.79 0,118.07 -96.18,213.79 -214.82,213.79 -118.64,0 -214.82,-95.72 -214.82,-213.79 0,-118.07 96.18,-213.79 214.82,-213.79zm-105.35 148.72l50.69 0 10.87 -50.19c1.93,-8.89 10.76,-14.57 19.65,-12.65l0 0c8.89,1.93 14.57,10.76 12.65,19.65l-9.36 43.19 64.91 0 11.06 -51.99c1.89,-8.89 10.71,-14.61 19.6,-12.72l0 0c8.89,1.89 14.61,10.71 12.72,19.6l-9.6 45.11 48.15 0c9.09,0 16.52,7.43 16.52,16.52l0 0c0,9.09 -7.43,16.53 -16.52,16.53l-55.18 0 -14.06 66.1 48.58 0c9.09,0 16.53,7.43 16.53,16.52l0 0c0,9.09 -7.44,16.52 -16.53,16.52l-55.61 0 -10.42 48.98c-1.89,8.89 -10.71,14.61 -19.6,12.72l-0 0c-8.89,-1.89 -14.61,-10.71 -12.72,-19.6l8.96 -42.1 -65.43 0 -10.99 50.72c-1.93,8.88 -10.76,14.57 -19.65,12.65l0 0c-8.88,-1.93 -14.57,-10.76 -12.65,-19.65l9.47 -43.72 -42.7 0c-9.09,0 -16.52,-7.43 -16.52,-16.52l0 0c0,-9.09 7.43,-16.52 16.52,-16.52l49.86 0 14.32 -66.1 -43.52 0c-9.09,0 -16.52,-7.44 -16.52,-16.53l0 0c0,-9.09 7.43,-16.52 16.52,-16.52zm142.38 33.05l-65.04 0 -14.32 66.1 65.3 0 14.06 -66.1zm456.65 -677.52c118.64,0 214.82,95.72 214.82,213.79 0,118.07 -96.18,213.79 -214.82,213.79 -118.64,0 -214.82,-95.72 -214.82,-213.79 0,-118.07 96.18,-213.79 214.82,-213.79zm-68.16 99.15l140.46 0c24.99,0 45.44,20.44 45.44,45.44l0 138.4c0,25 -20.45,45.44 -45.44,45.44l-140.46 0c-25,0 -45.44,-20.44 -45.44,-45.44l0 -138.4c0,-25 20.45,-45.44 45.44,-45.44zm71.26 66.1c27.95,0 50.61,22.2 50.61,49.57 0,27.38 -22.66,49.57 -50.61,49.57 -27.95,0 -50.61,-22.19 -50.61,-49.57 0,-27.37 22.66,-49.57 50.61,-49.57zm0 32.37c9.7,0 17.56,7.7 17.56,17.2 0,9.5 -7.86,17.2 -17.56,17.2 -9.7,0 -17.56,-7.7 -17.56,-17.2 0,-9.5 7.86,-17.2 17.56,-17.2zm-67.13 -67.49l134.26 0c7.95,0 14.46,6.51 14.46,14.45l0 138.41c0,7.94 -6.51,14.45 -14.46,14.45l-134.26 0c-7.95,0 -14.46,-6.51 -14.46,-14.45l0 -138.41c0,-7.94 6.51,-14.45 14.46,-14.45zm-402.11 -55.77c1.38,0 1.38,0 4.48,0 3.1,0 9.3,0 13.43,0.69 4.13,0.69 6.2,2.07 7.92,4.48 1.72,2.41 3.1,5.85 3.44,9.3 0.35,3.44 -0.35,6.88 -1.72,9.64 -1.37,2.76 -3.44,4.82 -5.16,6.2 -1.72,1.37 -3.1,2.07 -6.89,2.41 -3.79,0.35 -9.98,0.35 -16.18,0.35 -6.2,0 -12.39,0 -16.87,1.38 -4.47,1.37 -7.23,4.13 -9.3,6.88 -2.06,2.75 -3.44,5.51 -4.47,9.3 -1.03,3.79 -1.72,8.61 -2.07,42l-0.09 10.67 45.19 0c9.09,0 16.53,7.43 16.53,16.52 0,9.09 -7.44,16.52 -16.53,16.52l-45.35 0c-0.09,29.78 -0.09,62.65 -0.09,82.63 0,30.98 0,30.98 0,34.08 0,3.1 0,9.3 -0.35,13.43 -0.34,4.13 -1.03,6.19 -2.41,8.26 -1.37,2.07 -3.44,4.13 -6.54,5.17 -3.1,1.03 -7.23,1.03 -10.67,0.34 -3.44,-0.69 -6.2,-2.07 -8.26,-3.79 -2.06,-1.72 -3.44,-3.79 -3.78,-19.62 -0.35,-15.83 0.34,-45.44 0.69,-82.97 0.11,-12.02 0.19,-24.85 0.24,-37.53l-39.14 0c-9.09,0 -16.52,-7.43 -16.52,-16.52 0,-9.09 7.43,-16.52 16.52,-16.52l39.23 0c0.02,-14.19 0.02,-26.83 0.02,-36.15 0,-23.75 0,-25.82 0.69,-29.26 0.69,-3.44 2.07,-8.26 5.11,-13.06 3.04,-4.8 7.75,-9.59 13.26,-13.72 5.51,-4.13 11.82,-7.61 18.42,-9.35 6.6,-1.74 13.49,-1.74 18.31,-1.74 4.82,0 7.57,0 8.95,0z"/>
 </g>
</svg>
